<?xml version="1.0" encoding="UTF-8"?>
<svg xmlns="http://www.w3.org/2000/svg" xmlns:xlink="http://www.w3.org/1999/xlink" width="260.65pt" height="260.65pt" viewBox="0 0 260.65 260.65" version="1.1">
<defs>
<clipPath id="clip1">
  <path d="M 0 0 L 260.648438 0 L 260.648438 260.648438 L 0 260.648438 Z M 0 0 "/>
</clipPath>
</defs>
<g id="surface1">
<path style=" stroke:none;fill-rule:nonzero;fill:rgb(3.921509%,5.882263%,62.35199%);fill-opacity:1;" d="M 126.714844 33.210938 C 95.089844 34.429688 67.347656 50.761719 50.488281 75.183594 C 49.953125 75.960938 50.242188 77.035156 51.089844 77.453125 L 54.65625 79.210938 L 66.082031 84.605469 C 66.640625 84.871094 67.300781 84.777344 67.765625 84.371094 L 88.515625 66.273438 C 89.726563 65.214844 91.550781 66.472656 90.996094 67.980469 L 82.0625 92.230469 C 81.910156 92.640625 81.941406 93.097656 82.144531 93.488281 L 98.417969 124.550781 C 98.570313 124.839844 98.808594 125.074219 99.101563 125.21875 L 111.527344 131.398438 C 112.164063 131.714844 112.929688 131.5625 113.394531 131.027344 L 122.0625 121.023438 C 122.925781 120.03125 124.554688 120.488281 124.769531 121.785156 L 127.398438 137.480469 C 127.578125 138.558594 128.777344 139.117188 129.71875 138.5625 L 176.230469 111.203125 C 177.640625 110.378906 179.207031 112 178.332031 113.378906 L 143.097656 168.816406 C 143.039063 168.90625 142.992188 169 142.953125 169.097656 L 133.128906 195.011719 C 132.933594 195.519531 132.488281 195.890625 131.953125 195.988281 L 109.78125 200.070313 C 109.476563 200.125 109.160156 200.089844 108.878906 199.964844 L 78.910156 186.878906 C 78.757813 186.8125 78.617188 186.71875 78.492188 186.609375 L 59.558594 169.585938 C 59.121094 169.191406 58.5 169.078125 57.953125 169.292969 L 45.667969 174.074219 C 44.800781 174.410156 44.414063 175.433594 44.855469 176.25 C 61.246094 206.761719 93.460938 227.507813 130.519531 227.507813 C 183.746094 227.507813 226.976563 184.722656 227.695313 131.667969 C 228.449219 76.226563 182.117188 31.074219 126.714844 33.210938 "/>
<g clip-path="url(#clip1)" clip-rule="nonzero">
<path style=" stroke:none;fill-rule:nonzero;fill:rgb(3.921509%,5.882263%,62.35199%);fill-opacity:1;" d="M 130.328125 19.21875 C 69.0625 19.21875 19.222656 69.058594 19.222656 130.320313 C 19.222656 191.585938 69.0625 241.425781 130.328125 241.425781 C 191.589844 241.425781 241.429688 191.585938 241.429688 130.320313 C 241.429688 69.058594 191.589844 19.21875 130.328125 19.21875 M 130.328125 260.648438 C 58.464844 260.648438 0 202.183594 0 130.320313 C 0 58.460938 58.464844 -0.00390625 130.328125 -0.00390625 C 202.1875 -0.00390625 260.652344 58.460938 260.652344 130.320313 C 260.652344 202.183594 202.1875 260.648438 130.328125 260.648438 "/>
</g>
</g>
</svg>
